<svg id="Capa_1" enable-background="new 0 0 512 512" height="512" viewBox="0 0 512 512" width="512" xmlns="http://www.w3.org/2000/svg"><g><path d="m338.278 127.5c-12.716-22.027-43.727-21.217-68.731-15.953-7.944-24.288-22.749-51.547-48.182-51.547-25.434 0-40.236 27.259-48.181 51.547-25.007-5.265-56.017-6.072-68.732 15.953-12.717 22.025 3.488 48.476 20.551 67.5-17.062 19.024-33.267 45.475-20.551 67.5 12.718 22.03 43.74 21.214 68.732 15.953 7.945 24.29 22.748 51.547 48.181 51.547 25.434 0 40.237-27.26 48.182-51.547 25.006 5.265 56.016 6.07 68.731-15.952 12.716-22.025-3.487-48.475-20.55-67.5 17.062-19.025 33.267-45.476 20.55-67.501zm-25.981 15c.971 1.681 1.433 11.719-16.19 31.69-5.169-4.361-10.684-8.65-16.464-12.838-.737-7.099-1.693-14.02-2.885-20.676 25.56-5.165 34.441-.079 35.539 1.824zm-75.932 78.481c-4.997 2.885-10.008 5.594-15 8.119-4.992-2.525-10.003-5.234-15-8.119s-9.848-5.87-14.531-8.931c-.309-5.586-.469-11.28-.469-17.05s.16-11.464.469-17.05c4.683-3.061 9.534-6.046 14.531-8.931s10.008-5.594 15-8.119c4.992 2.525 10.003 5.234 15 8.119s9.848 5.87 14.531 8.931c.309 5.586.469 11.28.469 17.05s-.16 11.464-.469 17.05c-4.683 3.061-9.535 6.046-14.531 8.931zm-15-130.981c1.941 0 10.865 4.618 19.349 29.866-6.361 2.296-12.833 4.928-19.349 7.839-6.516-2.912-12.988-5.544-19.349-7.839 8.49-25.268 17.402-29.866 19.349-29.866zm-90.933 52.5c1.097-1.899 9.976-6.99 35.54-1.824-1.192 6.657-2.149 13.578-2.885 20.677-5.78 4.187-11.295 8.476-16.464 12.837-17.638-19.987-17.164-30.004-16.191-31.69zm0 105c-.971-1.681-1.433-11.719 16.19-31.69 5.169 4.361 10.684 8.65 16.464 12.837.737 7.099 1.693 14.02 2.885 20.677-26.133 5.282-34.566-.139-35.539-1.824zm90.933 52.5c-1.943 0-10.865-4.618-19.349-29.866 6.361-2.296 12.833-4.928 19.349-7.839 6.516 2.911 12.988 5.544 19.349 7.839-8.491 25.268-17.403 29.866-19.349 29.866zm90.932-52.5c-.97 1.682-9.431 7.099-35.539 1.824 1.192-6.657 2.149-13.578 2.885-20.677 5.78-4.188 11.295-8.476 16.464-12.838 17.646 19.999 17.161 30.01 16.19 31.691z"/><path d="m416.332 191.393c-1.934-105.862-88.652-191.393-194.967-191.393-107.523 0-195 87.477-195 195 0 52.891 21.786 103.688 60 140.431v176.569h210v-62h120v-120h69.271zm-29.967 108.607v120h-120v62h-150v-159.802l-4.985-4.471c-34.963-31.356-55.015-76.089-55.015-122.727 0-90.981 74.019-165 165-165s165 74.019 165 165v3.541l50.729 101.459z"/></g></svg>