<?xml version="1.0" encoding="UTF-8"?>
<svg width="508px" height="273px" viewBox="0 0 508 273" version="1.1" xmlns="http://www.w3.org/2000/svg" xmlns:xlink="http://www.w3.org/1999/xlink">
    <!-- Generator: Sketch 51 (57462) - http://www.bohemiancoding.com/sketch -->
    <title>Combined Shape</title>
    <desc>Created with Sketch.</desc>
    <defs></defs>
    <g id="Page-3" stroke="none" stroke-width="1" fill="none" fill-rule="evenodd">
        <g id="CO" fill="#000000">
            <path d="M222.448917,213.013633 C214.168142,201.368803 207.726247,188.361666 203.538539,174.4014 C192.102342,192.228394 172.394392,204 150,204 C114.653776,204 86,174.674651 86,138.5 C86,102.325349 114.653776,73 150,73 C171.880083,73 191.1957,84.237121 202.737587,101.380007 C209.728028,76.0554981 224.094909,53.7249391 243.424055,36.7668691 C217.595976,15.752059 183.664047,3 146.5,3 C65.5902842,3 0,63.4415588 0,138 C0,212.558441 65.5902842,273 146.5,273 C184.522132,273 219.161168,259.652276 245.200076,237.764332 C236.613399,230.489693 228.962311,222.173085 222.448917,213.013633 L253.402425,199.437533 C242.942652,180.288061 237,158.33546 237,135 C237,60.4415588 297.665416,0 372.5,0 C447.334584,0 508,60.4415588 508,135 C508,209.558441 447.334584,270 372.5,270 C321.087304,270 276.362364,241.471974 253.402425,199.437533 L222.448917,213.013633 Z" id="Combined-Shape"></path>
        </g>
    </g>
</svg>