<?xml version="1.0" encoding="UTF-8"?>
<svg width="104px" height="87px" viewBox="0 0 104 87" version="1.1" xmlns="http://www.w3.org/2000/svg" xmlns:xlink="http://www.w3.org/1999/xlink">
    <!-- Generator: Sketch 51 (57462) - http://www.bohemiancoding.com/sketch -->
    <title>EY</title>
    <desc>Created with Sketch.</desc>
    <defs></defs>
    <g id="Logos" stroke="none" stroke-width="1" fill="none" fill-rule="evenodd">
        <g id="EY" fill="#9CDBD9">
            <path d="M11.4054878,49.5121951 L21.6150268,49.5121951 L26.6128049,58.3082164 L11.4054878,58.3082164 L11.4054878,64.3816596 L25.1343157,64.3816596 L25.1343157,72.3399646 L11.4054878,72.3399646 L11.4054878,78.4134078 L30.4146341,78.4134078 L30.4146341,87 L11.4054878,87 L0,87 L0,49.5121951 L11.4054878,49.5121951 Z" id="Combined-Shape"></path>
            <path d="M49.041566,72.5146383 L49.041566,87 L37.7493183,87 L37.7493183,72.3890696 L24.7560976,49.5121951 L37.2125053,49.5121951 L43.5324642,61.734713 L49.7874947,49.6377638 L62.2439024,49.6377638 L49.2506817,72.5146383 L49.041566,72.5146383 Z" id="Combined-Shape"></path>
            <polygon id="Triangle" points="103.97561 0 103.97561 19.9431767 0 38.195122"></polygon>
        </g>
    </g>
</svg>