<?xml version="1.0" encoding="UTF-8"?>
<svg width="122px" height="122px" viewBox="0 0 122 122" version="1.1" xmlns="http://www.w3.org/2000/svg" xmlns:xlink="http://www.w3.org/1999/xlink">
    <!-- Generator: Sketch 51 (57462) - http://www.bohemiancoding.com/sketch -->
    <title>Head Mini</title>
    <desc>Created with Sketch.</desc>
    <defs></defs>
    <g id="Page-6" stroke="none" stroke-width="1" fill="none" fill-rule="evenodd">
        <g id="Head-Mini" stroke-width="4">
            <path d="M72.5936866,120 L72.5936866,110.211996 L98.8485314,110.211996 L98.8485314,83.7998202 L100.805033,83.7572581 C105.354807,83.6582816 108.63619,83.6582816 110.67451,83.7592335 C111.550258,83.8026067 112.427833,83.8530764 113.477619,83.9187633 C113.402607,83.9140697 116.017694,84.0815959 116.662053,84.1191118 C117.71896,84.1806472 118.495029,84.2134696 119.133648,84.2205694 C119.379025,84.2232974 119.600849,84.2220174 119.799158,84.2169175 C119.561569,83.3250746 119.137271,82.0906893 118.540217,80.5488814 C117.461663,77.7636675 115.893555,74.1482584 113.721352,69.3695601 C113.535463,68.9606171 113.34443,68.5415487 113.146878,68.1092742 C112.503548,66.7015678 109.085232,59.2936002 108.307848,57.5755656 C106.511567,53.6057538 105.931843,52.1937228 105.931843,51.3207873 C105.931843,24.1047741 82.6877623,2 53.9659213,2 C25.2440803,2 2,24.1047741 2,51.3207873 C2,68.5179883 6.09152533,82.3885803 15.6059027,92.0681152 C19.1449415,95.6685873 21.1661741,104.850178 22.015579,120 L72.5936866,120 Z M109.931835,51.293504 C109.93184,51.3025979 109.931843,51.3116923 109.931843,51.3207873 C109.931843,51.2959431 109.931533,51.2735241 109.930969,51.2532243 Z" id="Combined-Shape" stroke="#000000"></path>
            <g id="Heart" transform="translate(15.250000, 16.520833)" stroke="#9DDBD9">
                <path d="M39.686418,67.0037594 C49.5080141,57.0517649 56.4106831,50.0379646 60.393062,45.9637558 C71.2635551,34.8425992 75.7942208,28.7452349 76.1731726,23.7439477 C76.1867442,23.5648329 76.1965471,23.4379237 76.2200661,23.1358848 C76.5110163,19.405608 76.5378848,18.0070398 76.2303521,16.2191668 C75.6639721,12.9264575 73.8038065,10.0136831 69.7399236,6.72029395 C64.7994385,2.71650247 57.4365028,0.781798762 50.777379,3.34132613 C48.6870201,4.1447848 45.3808113,6.62028369 41.0127408,10.7311493 L39.4570133,12.1952711 L38.098515,10.5465069 C35.0583138,6.8567159 31.6376037,4.4908233 27.8142222,3.3973872 C21.1053129,1.47872863 14.148045,3.08382293 9.96383251,6.38475549 C3.55269772,11.442511 1.60896452,18.1606978 2.60817658,23.5290837 C2.66294664,23.8233424 2.66849131,23.8543696 2.80227831,24.6088441 C2.90033569,25.1618261 2.95989802,25.4854345 3.02792498,25.8254148 C3.92774174,30.3224549 6.16599737,33.714986 13.5976531,40.1420357 C17.4600271,43.4822967 26.1281481,52.4103279 39.686418,67.0037594 Z" id="Oval-4"></path>
                <polyline id="Line-4" stroke-linecap="square" stroke-linejoin="round" points="4.18580729 26.0250443 21.4214844 26.0645702 21.4214844 18.2266871"></polyline>
                <polyline id="Line-4-Copy" stroke-linecap="square" stroke-linejoin="round" transform="translate(51.707031, 35.922937) scale(1, -1) translate(-51.707031, -35.922937) " points="41.365625 43.114682 62.0484375 43.1879559 62.0484375 28.6579185"></polyline>
                <path d="M57.8626302,4.21357861 L57.8626302,11.1535904" id="Line-5" stroke-linecap="square"></path>
                <path d="M35.579362,46.5972222 L20.9290365,46.5972222" id="Line-5-Copy" stroke-linecap="square"></path>
                <ellipse id="Oval-5" cx="21.4214844" cy="14.1278812" rx="4.15559896" ry="4.19643913"></ellipse>
                <ellipse id="Oval-5-Copy" cx="57.3701823" cy="16.1107417" rx="4.15559896" ry="4.19643913"></ellipse>
                <ellipse id="Oval-5-Copy-2" cx="35.210026" cy="28.50362" rx="4.15559896" ry="4.19643913"></ellipse>
                <ellipse id="Oval-5-Copy-3" cx="39.6420573" cy="46.8450798" rx="4.15559896" ry="4.19643913"></ellipse>
            </g>
        </g>
    </g>
</svg>