<?xml version="1.0" encoding="UTF-8"?>
<svg width="103px" height="124px" viewBox="0 0 103 124" version="1.1" xmlns="http://www.w3.org/2000/svg" xmlns:xlink="http://www.w3.org/1999/xlink">
    <!-- Generator: Sketch 51 (57462) - http://www.bohemiancoding.com/sketch -->
    <title>Kohai</title>
    <desc>Created with Sketch.</desc>
    <defs></defs>
    <g id="Page-4" stroke="none" stroke-width="1" fill="none" fill-rule="evenodd">
        <g id="Kohai" transform="translate(-9.000000, 0.000000)" stroke="#FFFFFF">
            <path d="M64.538029,77.5020045 L43.1822638,99.5 L64.1206743,99.5 L85.8083576,77.7032323 L64.538029,77.5020045 Z" id="Rectangle-2" transform="translate(64.500000, 88.500000) rotate(-90.000000) translate(-64.500000, -88.500000) "></path>
            <rect id="Rectangle" transform="translate(65.000000, 16.500000) rotate(-45.000000) translate(-65.000000, -16.500000) " x="54.5" y="5.5" width="21" height="22"></rect>
            <polygon id="Triangle" transform="translate(48.000000, 46.000000) rotate(30.000000) translate(-48.000000, -46.000000) " points="56.4146778 26 79 66 17 49.0197106"></polygon>
            <polygon id="Triangle-Copy" transform="translate(83.000000, 46.000000) scale(-1, 1) rotate(30.000000) translate(-83.000000, -46.000000) " points="91.4146778 26 114 66 52 49.0197106"></polygon>
            <polygon id="Triangle-Copy-4" transform="translate(44.500000, 85.500000) rotate(120.000000) translate(-44.500000, -85.500000) " points="50.3359862 72 66 99 23 87.5383046"></polygon>
            <polygon id="Triangle-Copy-2" transform="translate(19.000000, 93.000000) scale(-1, 1) rotate(30.000000) translate(-19.000000, -93.000000) " points="23.3430595 83 35 103 3 94.5098553"></polygon>
            <polygon id="Triangle-Copy-3" transform="translate(71.000000, 114.000000) scale(-1, 1) rotate(120.000000) translate(-71.000000, -114.000000) " points="75.3430595 104 87 124 55 115.509855"></polygon>
        </g>
    </g>
</svg>