<?xml version="1.0" encoding="UTF-8"?>
<svg width="109px" height="109px" viewBox="0 0 109 109" version="1.1" xmlns="http://www.w3.org/2000/svg" xmlns:xlink="http://www.w3.org/1999/xlink">
    <!-- Generator: Sketch 51 (57462) - http://www.bohemiancoding.com/sketch -->
    <title>Rocket Copy</title>
    <desc>Created with Sketch.</desc>
    <defs></defs>
    <g id="Page-6" stroke="none" stroke-width="1" fill="none" fill-rule="evenodd">
        <g id="Rocket-Copy" transform="translate(2.000000, -16.000000)">
            <path d="M24.396336,49.7393434 C13.3567801,59.7812762 6.93120987,65.9889102 5.27521927,68.1879188 C4.84938434,68.7533898 4.6103306,69.1722824 4.52422214,69.4384532 C4.74217988,69.732101 5.16706854,70.0860684 5.67027757,70.3008355 C7.14876443,70.9318464 12.1488829,71.6747899 20.3715947,72.4417336 L45.8346408,47.0369353 L24.396336,49.7393434 Z" id="Rectangle-3" stroke="#000000" stroke-width="3" fill="#9DDBD9"></path>
            <path d="M61.396336,86.7393434 C50.3567801,96.7812762 43.9312099,102.98891 42.2752193,105.187919 C41.8493843,105.75339 41.6103306,106.172282 41.5242221,106.438453 C41.7421799,106.732101 42.1670685,107.086068 42.6702776,107.300836 C44.1487644,107.931846 49.1488829,108.67479 57.3715947,109.441734 L82.8346408,84.0369353 L61.396336,86.7393434 Z" id="Rectangle-3-Copy" stroke="#000000" stroke-width="3" fill="#9DDBD9" transform="translate(63.500000, 96.500000) scale(-1, 1) rotate(-90.000000) translate(-63.500000, -96.500000) "></path>
            <path d="M5.22093023,116.785714 L23.7790698,99.2142857" id="Line-2" stroke="#9DDBD9" stroke-width="3" stroke-linecap="round"></path>
            <path d="M21,113 L28.7894737,105.222222" id="Line-2-Copy" stroke="#9DDBD9" stroke-width="3" stroke-linecap="round"></path>
            <path d="M0,111 L8,103" id="Line-2-Copy-2" stroke="#9DDBD9" stroke-width="3" stroke-linecap="round"></path>
            <path d="M16,96 L17.8,94" id="Line-2-Copy-3" stroke="#9DDBD9" stroke-width="3" stroke-linecap="round"></path>
            <path d="M11,123 L13,121" id="Line-2-Copy-4" stroke="#9DDBD9" stroke-width="3" stroke-linecap="round"></path>
            <circle id="Oval-2" fill="#9DDBD9" cx="12" cy="99" r="2"></circle>
            <circle id="Oval-2-Copy" fill="#9DDBD9" cx="17" cy="118" r="2"></circle>
            <path d="M20.5407204,32.0427028 L20.5013794,72.2942097 C57.5036421,74.5386947 81.9999557,73.6412072 93.825406,69.6609951 C105.275293,65.8071901 113.364922,60.1352018 118.156692,52.6618563 C110.647349,43.7792035 101.807036,37.8420393 91.6137255,34.8212727 C81.1635175,31.7243751 57.411142,30.7821895 20.5407287,32.0427025 Z" id="Rectangle" stroke="#000000" stroke-width="3" fill="#FFFFFF" transform="translate(69.500000, 52.500000) rotate(-45.000000) translate(-69.500000, -52.500000) "></path>
            <path d="M82,20.2600067 C82.2181972,22.1588447 82.5711861,23.6906155 83.0589666,24.855319 C84.7048834,28.7853764 87.2025595,32.5533393 88.7539023,34.1657885 C90.2987652,35.7715027 93.135506,37.9471812 96.9053329,39.5637091 C98.0377784,40.0493096 99.744862,40.5280732 102.026584,41 C103.538082,36.7679561 104.471173,32.846654 104.825857,29.2360939 C105.180541,25.6255337 104.993425,21.953064 104.26451,18.2186849 C100.000601,17.9153265 96.0806384,17.9275809 92.5046218,18.255448 C88.9286052,18.5833151 85.4270646,19.2515013 82,20.2600067 Z" id="Line" stroke="#000000" stroke-width="3" fill="#9DDBD9" stroke-linecap="square"></path>
            <path d="M16.9249686,85.5041047 C15.8223616,88.789425 15.0945232,91.389696 14.7421571,93.2893356 C14.5588958,94.2773152 14.4817563,95.0544357 14.5035515,95.601248 C14.5066012,95.6777607 14.5115146,95.7474286 14.5179217,95.8100096 C16.6727448,96.3480798 19.2606291,96.4195698 25.1919085,96.3024597 C27.7759731,96.2514387 29.038552,96.2369361 30.5596508,96.2549019 C30.8389816,96.2582012 31.1242553,96.2625383 31.4173334,96.2678959 C32.5153981,96.2879689 33.450044,96.3145339 35.3141599,96.3743566 C42.7691158,96.6135991 45.84653,96.538303 48.4994609,95.7787702 C48.4890736,95.3976346 48.4081129,94.8335178 48.2467084,94.1126555 C47.8187343,92.2012435 46.8729216,89.3593876 45.4125555,85.6127984 L16.9249686,85.5041047 Z" id="Rectangle-2" stroke="#000000" stroke-width="3" fill="#9DDBD9" transform="translate(31.500000, 91.000000) rotate(45.000000) translate(-31.500000, -91.000000) "></path>
            <circle id="Oval" stroke="#000000" stroke-width="3" fill="#9DDBD9" cx="68" cy="55" r="11"></circle>
        </g>
    </g>
</svg>