<?xml version="1.0" encoding="UTF-8"?>
<svg width="461px" height="87px" viewBox="0 0 461 87" version="1.1" xmlns="http://www.w3.org/2000/svg" xmlns:xlink="http://www.w3.org/1999/xlink">
    <!-- Generator: Sketch 51 (57462) - http://www.bohemiancoding.com/sketch -->
    <title>wallapop_logo</title>
    <desc>Created with Sketch.</desc>
    <defs></defs>
    <g id="Logos" stroke="none" stroke-width="1" fill="none" fill-rule="evenodd">
        <g id="wallapop_logo" fill="#9CDBD9" fill-rule="nonzero">
            <path d="M352.853273,56.6840102 C346.782292,56.6840102 342.212886,51.7991313 342.069546,45.2865372 C341.856283,38.7063383 346.710621,33.3308914 352.711681,33.3308914 C353.068283,33.3308914 353.423138,33.3308914 353.77974,33.4019631 C354.139839,33.4730348 354.496441,33.5441065 354.853044,33.6151782 C355.209646,33.6862499 355.5645,33.7555881 355.921103,33.8977315 C356.282949,34.0381414 356.637804,34.1802848 356.994406,34.3224282 C357.279339,34.4645716 357.635941,34.6049815 357.920873,34.8164631 C358.275728,34.9586065 358.565904,35.1700882 358.850837,35.3815698 C359.135769,35.5947849 359.420701,35.8062665 359.705634,36.0888198 C359.990566,36.3055018 360.275498,36.5880551 360.48876,36.8706085 C360.778937,37.0838236 360.992199,37.3663769 361.20721,37.6489302 C361.420472,38.0025552 361.633734,38.2851085 361.846996,38.5676619 C362.060258,38.9212869 362.203599,39.2038402 362.416861,39.5609321 C362.560201,39.8434855 362.701793,40.1971105 362.84863,40.5507355 C362.9203,40.9043605 363.06364,41.2579855 363.133562,41.6116105 C363.276902,41.8941639 363.348572,42.3188606 363.418494,42.6724856 C363.418494,43.0295775 363.490164,43.3832025 363.490164,43.7368276 C363.561834,44.0904526 363.561834,44.4423441 363.561834,44.7959692 C363.638749,51.4455063 358.997673,56.6840102 352.853273,56.6840102 Z M306.577115,56.0443649 C300.719396,56.0443649 295.651796,50.7382562 295.578378,44.5099489 C295.508455,38.2816416 300.719396,32.4069593 306.505445,32.3376211 C312.221572,32.3376211 317.290921,37.7876067 317.432513,44.015914 C317.645775,50.3135595 312.578175,55.9732933 306.577115,56.0443649 Z M214.738004,55.8311499 C208.955451,55.8311499 204.101113,50.4557029 204.101113,44.0869857 C204.101113,37.7182684 209.240384,31.9129244 214.951267,31.9839961 C220.667394,32.0550678 225.736742,37.8586784 225.878334,43.875504 C225.878334,50.1714161 220.597472,55.8311499 214.738004,55.8311499 Z M355.709589,24.4815987 C340.859894,23.1381703 332.43254,33.4695679 332.574132,44.0852522 C332.717472,46.988791 332.645802,49.8195246 332.36087,52.6450578 C332.217529,53.9208814 330.861042,55.0528281 330.004497,56.1830414 C329.001115,54.9817564 327.357947,53.9208814 327.142937,52.6450578 C326.929675,49.4589657 326.788083,46.2087358 326.858005,42.9533055 C326.858005,42.381265 326.858005,41.7468201 326.788083,41.1106418 C326.716412,40.5455351 326.644742,39.9093568 326.50315,39.3390498 C326.35981,38.7028714 326.218218,38.1377648 326.004956,37.5015864 C325.861615,36.9364798 325.646605,36.3713732 325.435091,35.8010661 C325.144914,35.2359595 324.931652,34.6708528 324.64672,34.1057462 C324.290117,33.5406396 324.003437,33.0448711 323.648583,32.5456358 C323.36365,31.9805292 323.003552,31.4864942 322.575279,31.0617975 C322.220425,30.5677626 321.792152,30.0737276 321.365628,29.6490309 C320.937355,29.2191338 320.505587,28.7961706 320.007392,28.3714739 C319.57912,27.9485106 319.080925,27.5948856 318.577486,27.2412606 C318.077544,26.8876355 317.509427,26.5340105 317.011233,26.2514572 C316.43962,25.8943653 315.937929,25.6118119 315.366316,25.3985969 C314.796452,25.1160435 314.228335,24.9028285 313.653226,24.6930803 C313.01344,24.4798652 312.443575,24.3394553 311.868466,24.1262402 C311.226931,23.9840968 310.657067,23.9147586 310.015532,23.7726152 C309.440423,23.7015435 308.798888,23.6304718 308.157354,23.5594001 C296.230401,23.1347034 287.444696,30.0702607 286.518228,41.17998 C286.161626,45.7771052 287.088093,50.452236 287.444696,55.2625763 C287.088093,55.4047197 286.803161,55.5451296 286.448306,55.6162013 C286.161626,55.687273 285.806772,55.7583447 285.444925,55.827683 C285.161741,55.8987546 284.80339,55.8987546 284.448536,55.8987546 C284.163604,55.8987546 283.807001,55.8987546 283.450399,55.8987546 C283.0903,55.827683 282.805368,55.7583447 282.448765,55.687273 C282.163833,55.6162013 281.807231,55.5451296 281.522298,55.4740579 C281.167444,55.333648 280.877267,55.1915046 280.592335,55.0510947 C280.237481,54.9106847 279.9508,54.7685414 279.665868,54.5553263 C279.380936,54.4166498 279.167673,54.2034347 278.879245,53.9919531 C278.594313,53.7804715 278.38105,53.5672564 278.16604,53.2864365 C277.881108,53.0732214 277.667846,52.7872012 277.526253,52.5046479 C277.311243,52.2220945 277.097981,51.9378078 276.954641,51.6569879 C276.813049,51.3727011 276.666212,51.0901478 276.522872,50.8075945 C276.38128,50.4557029 276.23794,50.1714161 276.16627,49.8195246 C276.096348,49.5335043 276.024677,49.1781459 275.953007,48.897326 C275.953007,48.543701 275.881337,48.190076 275.881337,47.8364509 C275.739745,36.0160147 275.739745,24.2007788 275.596405,12.3092708 C275.596405,10.1892542 275.383143,8.13510886 274.884948,6.08616391 C274.815026,5.58692859 274.671686,5.16396533 274.453179,4.73926862 C274.311587,4.3856436 274.096577,3.96094689 273.811645,3.60732187 C273.598382,3.18435862 273.31345,2.8307336 273.028518,2.54818028 C272.671915,2.19108835 272.388731,1.90853502 271.955214,1.6259817 C271.60036,1.34342838 271.243758,1.13021329 270.815485,0.918731664 C270.458883,0.707250036 270.027114,0.565106646 269.60059,0.424696713 C269.174065,0.284286779 268.674122,0.213215084 268.24585,0.142143389 C267.815829,0.0710716947 267.315887,0.0710716947 266.889362,0.0710716947 C266.674352,0.494034951 266.60443,0.989803359 266.53276,1.41276662 C266.53276,17.9724715 266.53276,34.6032481 266.746022,51.1646864 C266.746022,53.9243483 265.962895,54.7009366 263.534852,54.7720083 C258.177075,54.7720083 254.822565,51.4455063 254.750895,45.7805722 C254.750895,33.6827829 254.750895,21.5797934 254.750895,9.48200415 C254.822565,9.19945083 254.822565,8.8423589 254.822565,8.55980558 C254.822565,8.27725225 254.750895,7.92362724 254.750895,7.64107391 C254.675729,7.35852059 254.604059,7.07596727 254.532389,6.79341394 C254.462467,6.43978893 254.390797,6.1572356 254.319126,5.87468228 C254.177534,5.58692859 254.105864,5.30437527 253.962524,5.02182194 C253.820932,4.73926862 253.677592,4.52778699 253.536,4.24523367 C253.392659,3.96268035 253.181145,3.75119872 253.037805,3.46864539 C252.822795,3.25543031 252.609532,3.04394868 252.462696,2.83246705 C252.249434,2.54991373 252.036172,2.33323173 251.749491,2.1928218 C251.536229,1.97960672 251.322967,1.76812509 251.038034,1.62771516 C250.824772,1.41450007 250.53984,1.27409014 250.249663,1.13194675 C250.036401,0.989803359 249.751469,0.849393425 249.466536,0.707250036 C249.181604,0.565106646 248.896672,0.494034951 248.611739,0.424696713 C248.326807,0.282553323 248.038379,0.213215084 247.681776,0.142143389 C247.396844,0.0710716947 247.111912,0.0710716947 246.826979,0 C246.470377,0 246.185444,0 245.900512,0 C245.900512,1.41276662 245.682006,2.90180529 245.682006,4.31630536 C245.682006,20.0266168 245.682006,35.7351948 245.612084,51.4472397 C245.612084,55.6214017 242.89736,57.2525838 239.182752,55.196705 C238.541217,54.9158851 238.043022,54.6333318 237.54308,54.2086351 C237.041389,53.7856718 236.613116,53.2916369 236.256514,52.7924016 C235.90166,52.2272949 235.616727,51.6621883 235.401717,51.0242765 C235.260125,50.4591698 235.118533,49.8229915 235.118533,49.1816128 C235.260125,46.7790428 235.260125,44.4423441 235.118533,42.1056455 C234.18857,28.9417809 222.189946,19.959012 207.623436,24.6982807 C198.767809,27.5290143 194.268326,35.2411599 194.624928,45.2206659 C194.90986,53.3609751 198.622721,59.5858155 206.195279,63.0579278 C206.908483,63.4098194 207.69161,63.7634444 208.481729,63.974926 C209.264856,64.2574793 210.121401,64.4706944 210.909772,64.6111043 C211.764569,64.7515143 212.621115,64.8243194 213.409486,64.8243194 C214.264283,64.8243194 215.122576,64.8243194 215.909199,64.682176 C216.762248,64.6111043 217.550619,64.3996227 218.407164,64.1864076 C219.192039,63.974926 219.978662,63.6923727 220.693615,63.3404811 C221.476742,62.9833892 222.193443,62.5586925 222.908396,62.1339958 C223.6216,61.6399608 224.266631,61.1459259 224.908166,60.6501575 C225.408109,60.3676041 225.976225,60.2254607 226.553082,60.2254607 C227.192869,60.2254607 227.691063,60.4386758 228.192754,60.7212292 C233.548783,66.0984096 239.978115,66.1694813 246.833971,64.4724279 C248.833742,63.9766595 250.905183,63.9055878 252.976623,64.1881411 C258.259234,65.1086062 263.618759,65.4604978 268.827951,63.0596613 C269.541156,62.8429793 270.259605,62.7719076 270.971062,62.7719076 C271.684266,62.8429793 272.402715,62.9851227 273.11592,63.2000712 C276.18375,64.1170694 279.330242,64.6839095 282.541412,64.8260529 C285.757826,65.0358011 288.899074,64.8953911 292.038574,64.3302845 C294.396695,64.0477312 296.683146,64.0477312 299.041267,64.3302845 C305.393685,65.2472827 311.464666,65.3894261 316.824191,60.8633725 C317.463978,60.2982659 319.108894,60.4386758 320.107031,60.8633725 C322.889929,61.7803708 325.6064,63.8362495 328.319375,63.8362495 C332.247246,63.8362495 332.747189,65.2472827 332.603849,68.3640365 C332.462257,73.8140221 332.603849,79.2588073 332.603849,84.7105263 C337.743119,84.2875631 340.959533,81.6683111 341.529398,77.2115958 C341.81433,74.3791287 341.886,71.4773234 341.81433,68.6465898 C341.81433,66.5265732 341.81433,64.4741613 341.81433,61.712766 C343.887519,62.914051 345.957211,63.9073212 348.171992,64.8277863 C360.521973,68.8598049 371.595877,60.7940343 373.093957,46.9246531 C374.137544,35.591318 365.995122,25.471402 355.709589,24.4815987 Z" id="Shape"></path>
            <path d="M180.217523,26.8143373 C180.217523,33.643618 180.358355,40.1917944 180.074952,46.8089535 C180.003667,49.1302191 179.367315,51.2428122 178.084179,53.213991 C177.800777,53.6382342 177.517374,53.9900456 177.164425,54.341857 C176.881022,54.6936685 176.521118,55.0454799 176.096884,55.3265841 C175.742196,55.676671 175.317961,55.887068 174.891988,56.1698968 C174.462537,56.3802938 173.967017,56.5906909 173.541044,56.7355544 C173.045524,56.8769688 172.621289,57.0166586 172.120553,57.0856413 C171.623295,57.158073 171.127775,57.2270557 170.632255,57.2270557 C170.131519,57.2270557 169.635999,57.158073 169.210026,57.0856413 C168.714506,57.0166586 168.218986,56.8769688 167.789535,56.7355544 C167.294015,56.5906909 166.868042,56.451001 166.443807,56.3095866 C165.946549,56.0991896 165.588384,55.887068 165.164149,55.676671 C164.738176,55.3955667 164.383488,55.1144625 164.030538,54.8350829 C163.67585,54.5539786 163.315946,54.2021672 163.032544,53.8486312 C162.749141,53.4985443 162.465739,53.0725766 162.182336,52.7224897 C161.970219,52.2999711 161.758101,51.8774525 161.615531,51.4566584 C161.474699,50.9651571 161.328651,50.5426385 161.257365,50.0511372 C161.116533,49.6234449 161.045248,49.1319437 161.045248,48.7111496 C160.761845,44.6273777 161.18608,40.4763478 160.549728,36.3874022 C159.911638,33.4349455 158.701526,30.6877121 156.995894,28.1526004 C156.429089,27.5903919 155.719713,27.2385805 154.939051,26.9574762 C154.154913,26.7453547 153.37599,26.676372 152.590113,26.8160618 C151.953761,26.8160618 151.244385,29.2063101 151.1731,30.4773151 C151.032268,36.1770052 151.386956,41.9508516 150.960983,47.5850081 C150.820151,48.8491149 150.536748,50.0511372 150.036012,51.2445368 C149.538753,52.3689537 148.902402,53.5002689 148.045239,54.4142888 C147.761836,54.7661002 147.407148,55.0472045 147.054199,55.3283087 C146.699511,55.6783955 146.344823,55.8887926 145.915373,56.1009142 C145.491138,56.3113112 145.065165,56.5217082 144.64093,56.6631226 C144.214957,56.8786934 143.785506,56.9494006 143.359533,57.0183832 C142.935298,57.1597976 142.439778,57.1597976 142.013805,57.1597976 C141.513069,57.2287802 141.088834,57.1597976 140.593315,57.0873658 C140.167341,57.0873658 139.743107,56.9494006 139.313656,56.8079862 C138.887683,56.6631226 138.463448,56.5217082 138.037475,56.3113112 C137.61324,56.1716214 137.18379,55.9594998 136.757816,55.7491027 C136.331843,55.5387057 135.907608,55.2558769 135.552921,55.0472045 C135.199971,54.7661002 134.840067,54.4142888 134.485379,54.1331846 C134.201977,53.7813731 133.918574,53.4312863 133.635171,53.0035939 C133.351769,52.6535071 133.139651,52.2309885 132.922318,51.879177 C132.710201,51.458383 132.498084,51.0358643 132.355513,50.5443631 C132.214681,50.1218444 132.07211,49.6976013 132.002564,49.2043754 C131.931278,48.7835814 131.931278,48.2903555 131.859993,47.8695615 C131.647876,43.0080104 132.002564,38.0826504 131.009785,33.4366701 C130.509049,30.9705409 127.881924,28.6458262 125.680772,26.8902182 C124.335045,25.758903 122.486842,26.322836 122.486842,28.718258 C122.627674,36.0390399 122.486842,43.3649955 122.982362,50.6857775 C123.053647,51.4601075 123.124933,52.232713 123.265765,53.0070431 C123.477882,53.7848223 123.691738,54.4884451 123.973402,55.2610506 C124.192474,55.9646735 124.545423,56.6682963 124.900111,57.3770929 C125.324346,58.0807157 125.750319,58.7119068 126.174554,59.3465471 C126.67529,59.9794627 127.17081,60.5451203 127.737615,61.1073288 C128.30442,61.59883 128.947727,62.0920559 129.585817,62.5835571 C130.222169,63.0043512 130.865476,63.4320435 131.574852,63.7821304 C132.284228,64.1339418 132.997081,64.415046 133.777742,64.6961503 C140.382936,67.0915722 147.201986,67.0915722 152.885686,62.2300211 C155.371979,60.0449962 156.858539,59.9053064 159.350048,62.2300211 C166.948021,68.8471802 180.513096,67.4416591 185.913394,58.9912865 C191.736188,50.0528618 190.460007,39.9848465 187.686834,30.3393498 C186.894002,27.5886673 184.124307,25.9658509 180.217523,26.8143373 Z" id="Shape"></path>
            <path d="M439.996297,57.7611666 C433.931802,57.7611666 429.279019,52.424595 429.420535,45.741249 C429.560326,39.3384084 434.494415,34.1481874 440.277604,34.2196204 C440.700427,34.2910535 441.050766,34.2910535 441.402832,34.3607443 C441.760074,34.4321773 442.110414,34.5036104 442.462479,34.5750434 C442.814544,34.7161672 443.164883,34.7893426 443.518674,34.9304664 C443.798255,35.0733325 444.155498,35.2144563 444.505837,35.3573224 C444.787144,35.4984463 445.139209,35.7127454 445.420516,35.8538693 C445.772582,36.0664262 446.053889,36.2807253 446.338647,36.4932822 C446.62168,36.7075813 446.901261,36.9915713 447.182568,37.209355 C447.463875,37.4219119 447.67615,37.7059018 447.955731,37.9898917 C448.168005,38.2756239 448.383732,38.5578716 448.665039,38.8418615 C448.875587,39.1258515 449.015378,39.4098414 449.227653,39.7652644 C449.438201,40.0492543 449.577992,40.4046773 449.719508,40.6921518 C449.931783,41.0475748 450.071573,41.4029978 450.140606,41.7566785 C450.282122,42.0406684 450.421913,42.3960914 450.497848,42.7515144 C450.568607,43.1069374 450.637639,43.4623604 450.708397,43.8177834 C450.779155,44.1766909 450.779155,44.603547 450.849914,44.9589699 C450.849914,45.3143929 450.849914,45.6698159 450.849914,46.0252389 C450.784333,52.7817602 446.13155,57.8343419 439.996297,57.7611666 Z M455.789181,32.5801448 C455.155809,31.8710411 454.448227,31.1601951 453.673338,30.4493491 C452.969208,29.8064516 452.190868,29.1670387 451.345221,28.5990588 C450.5013,28.1007698 449.652202,27.6042229 448.737523,27.1773669 C447.819392,26.7470263 446.902987,26.3916033 445.98313,26.1076134 C444.999419,25.8236235 444.012256,25.6110666 443.094125,25.3985097 C442.108688,25.2556436 441.118073,25.1842105 440.063603,25.1842105 C439.074714,25.1842105 438.087551,25.2556436 437.100388,25.3985097 C436.114951,25.6128088 435.195094,25.8236235 434.209657,26.1076134 C425.609947,28.9544818 420.18055,35.7824362 420.18055,44.7464131 C420.04076,57.4074859 420.18055,70.0650742 420.18055,82.726147 C420.251308,83.720983 420.391099,84.7907365 420.674132,85.8552632 C426.241594,84.8621695 428.992534,81.6616203 429.134051,75.8981927 C429.204809,71.7028076 429.134051,67.5788556 429.134051,62.5262738 C431.249893,63.6622336 433.36401,64.7319871 435.550611,65.65539 C436.534323,66.010813 437.455905,66.2251121 438.510375,66.4359267 C439.495812,66.5787928 440.484701,66.7216589 441.470138,66.7216589 C442.529785,66.7216589 443.516948,66.5787928 444.504112,66.4359267 C445.489549,66.2948029 446.480164,66.010813 447.463875,65.65539 C448.383732,65.3714 449.298411,64.9462863 450.21309,64.4497394 C451.062188,63.9479658 451.906109,63.3799859 452.755207,62.740573 C453.530096,62.1725931 454.232501,61.4617472 454.941808,60.6759836 C455.645939,59.9651376 456.208553,59.1131678 456.772892,58.2594557 C461.641401,50.9349545 461.285885,39.2669753 455.789181,32.5801448 Z" id="Shape"></path>
            <path d="M395.938847,58.0762612 C390.070392,57.9354805 384.921703,52.3282868 385.063555,46.0892965 C384.991754,45.7390615 385.063555,45.3888265 385.063555,44.969918 C385.135357,44.619683 385.135357,44.269448 385.207158,43.9209298 C385.277208,43.568978 385.34901,43.2204598 385.492613,42.8667911 C385.562663,42.5148393 385.706266,42.1663211 385.848117,41.8160861 C385.99172,41.5362415 386.133572,41.1860065 386.277175,40.8357715 C386.419026,40.5559269 386.637933,40.2056918 386.851586,39.9258472 C386.995189,39.6460026 387.208842,39.2906171 387.494297,39.0107724 C387.70795,38.7309278 387.923354,38.4510832 388.208809,38.239912 C388.422462,37.9600674 388.707916,37.7506131 388.996873,37.4707685 C389.284079,37.2595974 389.567782,37.0501431 389.854988,36.838972 C390.138691,36.6295178 390.495947,36.4200635 390.781402,36.2054587 C391.143912,36.064678 391.429366,35.9256141 391.784871,35.714443 C392.142127,35.5736622 392.427581,35.5049887 392.784837,35.364208 C393.140342,35.2234272 393.502852,35.1530369 393.860108,35.0843633 C394.215612,35.013973 394.572868,34.9435826 394.930124,34.8731922 C395.35743,34.8028019 395.71994,34.8028019 396.075445,34.8028019 C402.372957,34.8028019 406.880687,39.7112424 406.737084,46.5803123 C406.670536,52.9549327 401.803799,58.1466516 395.938847,58.0762612 Z M396.366153,25.2022423 C384.778101,24.7129434 375.543734,34.2448294 375.473684,46.0892965 C375.473684,58.3578227 383.986533,67.4690833 395.651641,67.5394737 C407.740553,67.4690833 416.684211,58.4951698 416.684211,46.3725749 C416.684211,45.6686712 416.684211,44.969918 416.684211,44.3381215 C416.612409,43.6376515 416.540608,42.9337478 416.398756,42.3036682 C416.326955,41.6031982 416.183352,40.9731185 416.0415,40.3430389 C415.827847,39.6442857 415.612443,39.0090556 415.39879,38.3789759 C415.181634,37.7488963 414.894428,37.1188167 414.538923,36.5574106 C414.251718,35.9238972 413.968014,35.364208 413.610758,34.7324115 C413.181701,34.1727222 412.820943,33.613033 412.391885,33.1220172 C411.964579,32.5571774 411.535522,32.0678785 411.036414,31.5768628 C410.603854,31.0875639 410.104747,30.598265 409.605639,30.1776396 C409.03473,29.6866239 408.530369,29.2642817 407.959459,28.9123298 C407.38855,28.4934213 406.817641,28.1414694 406.24323,27.7929513 C405.598768,27.5131066 405.02961,27.1628716 404.385149,26.883027 C403.737184,26.6031824 403.096225,26.3937281 402.451763,26.1791233 C401.80555,25.9679522 401.091038,25.7584979 400.446577,25.619434 C399.800364,25.4786533 399.087603,25.4082629 398.443141,25.3395894 C397.726878,25.2022423 397.008864,25.2022423 396.366153,25.2022423 Z" id="Shape"></path>
            <path d="M80.7544761,55.396037 C80.3287731,56.0342618 79.9013253,56.6707476 79.327324,57.2394111 C78.8300889,57.7402524 78.2613217,58.2358765 77.617533,58.7332397 C76.9772337,59.1575635 76.2654024,59.5123261 75.553571,59.7957883 C74.8382503,60.0792506 74.0566316,60.2201122 73.3430555,60.3627128 C71.2756041,60.9348544 69.2098974,61.1470163 67.070914,61.1470163 C65.9281455,61.1470163 65.5722298,61.4304786 65.5722298,62.5643275 C65.5722298,65.2615663 65.2163142,67.8909829 64.4346954,70.4421431 C64.2166098,71.1551463 64.0037583,71.8646714 63.6478426,72.5028962 C63.2936716,73.2124213 62.9377559,73.848907 62.5103082,74.4227876 C62.0793711,75.0610124 61.5821359,75.6279369 61.0133687,76.1253001 C60.5161336,76.6922246 59.8706002,77.1165484 59.301833,77.5426113 C58.6632784,77.9721522 58.0229791,78.3269148 57.3059137,78.6816773 C56.6656144,78.9651396 55.9555278,79.2468628 55.1669303,79.3894634 C54.4550989,79.6033644 53.7450122,79.6729257 52.9564148,79.744226 C52.2463281,79.8155263 51.4629647,79.8155263 50.7458992,79.744226 C49.9642805,79.6729257 49.2524491,79.6033644 48.6069158,79.4607637 C47.8950844,79.2468628 47.1849978,79.0347009 46.5394644,78.8225389 C45.8276331,78.5390767 45.1873338,78.1860532 44.6185666,77.8312906 C43.9730332,77.4017497 43.404266,76.9774258 42.8354988,76.551363 C42.3330296,76.0557388 41.8357945,75.5583756 41.3385593,74.9914511 C40.9111116,74.4245267 40.4854085,73.7828238 40.1957909,73.14286 C39.8416199,72.5759355 39.5572363,71.8681494 39.271108,71.2281856 C39.0582564,70.5151824 38.8454049,69.8056573 38.7738728,69.0961322 C38.3481698,67.0336401 38.2766377,64.9085428 38.4894892,62.7764894 C38.6325534,60.644436 39.1297885,58.5889 39.8416199,56.528147 C40.1260035,55.9594835 40.3423444,55.2534364 40.3423444,54.6117335 C39.8416199,54.5404332 39.4141721,54.4708719 38.9867244,54.4708719 C38.4894892,54.4708719 38.0637861,54.4708719 37.632849,54.5404332 C37.1338692,54.6117335 36.7081661,54.7543342 36.2807184,54.8969348 C35.8550153,55.0377964 35.4240782,55.2516974 35.0681625,55.4638593 C34.6407148,55.6742822 34.2865438,55.9577444 33.9306281,56.2429457 C33.571223,56.5959692 33.2868394,56.8811705 33.0024558,57.234194 C32.7180722,57.5941737 32.4336886,58.0184975 32.2190924,58.3732601 C32.0062409,58.7993229 31.8649214,59.2236468 31.7218573,59.6479706 C31.1496007,61.2113605 30.793685,62.8443117 30.6523655,64.5485632 C30.5808335,66.1797753 30.6523655,67.8162046 31.0065365,69.516978 C31.1496007,70.5082263 31.0780686,71.0786288 29.8690021,71.2925298 C29.1536814,71.3655691 28.4435947,71.5064307 27.7300187,71.5064307 C27.0897194,71.575992 26.3743986,71.575992 25.6625673,71.5064307 C24.9507359,71.4351304 24.2354152,71.3655691 23.5235838,71.2229685 C22.8832846,71.0108066 22.1679638,70.8647279 21.5259199,70.5795266 C20.8856206,70.3673647 20.2418319,70.0839025 19.5997879,69.7308789 C18.9612333,69.3761164 18.3924661,69.0213538 17.8184649,68.5952909 C17.2496976,68.2422674 16.6809304,67.7466433 16.1819506,67.3171023 C15.6794814,66.8197391 15.1822463,66.2545537 14.7547985,65.7571905 C14.2575634,65.190266 13.9016477,64.6233416 13.4707106,64.052939 C13.1147949,63.4860145 12.7588792,62.917351 12.4744956,62.2791262 C12.1918567,61.6409014 11.9074731,61.0026766 11.6928769,60.2879344 C11.4747913,59.6497096 11.3334718,59.0132239 11.1904077,58.3019597 C11.0490882,57.5941737 10.9775561,56.9507318 10.9775561,56.2412067 C10.9060241,55.5334206 10.9060241,54.8238955 10.9775561,54.1143704 C11.0490882,53.4709285 11.1904077,52.7631424 11.3334718,52.0518782 C11.4747913,51.4136534 11.6928769,50.7754287 11.9772605,50.0624255 C12.2616441,49.1389994 12.6890918,48.9981378 13.5422427,49.3529004 C14.7547985,49.9198248 15.9656097,50.2728484 17.3212297,50.3458877 C18.6053177,50.4867493 19.8859162,50.3458877 21.1700042,49.9911252 C21.7405161,49.8485245 22.2377512,49.6363626 22.7402204,49.3529004 C23.2374555,49.0694381 23.7346907,48.7859759 24.1603938,48.359913 C24.5878415,48.0068895 25.0187786,47.5808266 25.3031622,47.1512857 C25.6590779,46.6539225 25.9434615,46.1600374 26.2278451,45.6626742 C26.6535482,44.6696868 26.4406967,44.243624 25.2316302,44.1740627 C22.377326,44.1027624 19.5980433,43.6019211 16.8920373,42.6819731 C16.251738,42.5393725 15.6794814,42.3272105 15.1107142,42.0437483 C14.541947,41.7602861 13.9731798,41.4768238 13.4707106,41.1220613 C12.9019434,40.838599 12.4047082,40.4073191 11.9772605,39.9829952 C11.4747913,39.6282327 11.0490882,39.1308695 10.6216405,38.7065456 C10.1959374,38.2091824 9.84002172,37.7135583 9.48410604,37.2179341 C9.19623306,36.6457926 8.84031739,36.0788681 8.62746585,35.5119436 C8.34308225,34.9450191 8.13023071,34.3780946 7.98716657,33.8094311 C7.77431503,33.1659893 7.63125089,32.5990648 7.55971881,31.96084 C7.48993143,31.3226152 7.41839935,30.6843904 7.41839935,30.0426875 C7.41839935,29.474024 7.48993143,28.8357992 7.55971881,28.1975744 C7.63125089,27.5593496 7.77431503,26.9872081 7.98716657,26.3489833 C8.13023071,25.7820588 8.34308225,25.2151343 8.62746585,24.6464708 C8.91184946,24.0778073 9.19623306,23.5074048 9.55563811,23.0117806 C9.91155379,22.4431171 10.2674695,21.9474929 10.6931725,21.4518688 C11.1206203,21.0258059 11.5463234,20.6014821 12.0487926,20.1719411 C12.4744956,19.7458783 12.9734754,19.3928547 13.5422427,19.0380922 C14.0447119,18.6833296 14.6134791,18.3998674 15.1822463,18.1164051 C15.7510135,17.8329429 16.3948021,17.619042 17.0368461,17.40688 C17.6056133,17.1929791 18.249402,17.0521175 18.891446,16.9808172 C19.5317452,16.9095168 20.1702998,16.8347385 20.8175779,16.8347385 C21.4561325,16.8347385 22.0964318,16.9095168 22.7437098,16.9808172 C23.3822644,17.1234178 24.0225637,17.2642794 24.5930756,17.4764413 C25.2368642,17.619042 25.8056314,17.9025042 26.3743986,18.1859664 C27.019932,18.4694287 27.5171671,18.7528909 28.0859343,19.1789538 C29.3700223,19.9597792 30.7221529,21.3823075 32.0777729,21.3823075 C33.3583715,21.3110072 33.7893086,19.1789538 34.7855236,17.9755435 C35.5671423,17.0538565 36.3539951,16.1982527 37.2804227,15.347866 C38.1370629,14.5687796 39.1350226,13.8592545 40.1312375,13.2158126 C41.1309419,12.5775878 42.1986889,12.0106633 43.2699253,11.5133001 C44.4074597,11.0159369 45.5502282,10.6629134 46.6877626,10.3081509 C47.8305311,10.0194715 49.0448317,9.80730961 50.2538982,9.73600929 C51.466454,9.59340865 52.6057331,9.59340865 53.8200337,9.66470897 C55.0273555,9.73600929 56.2434007,9.94817121 57.3809352,10.1655502 C58.593491,10.4490125 59.7327701,10.803775 60.8040066,11.3011382 C61.941541,11.7272011 63.0145221,12.2941256 64.0089924,12.859311 C65.0802288,13.5027529 66.0066563,14.210539 66.9348286,14.9913644 C67.8595115,15.7704508 68.714407,16.6225765 69.5012598,17.5477416 C70.2828785,18.4694287 70.9929652,19.3911157 71.5687112,20.4588814 C72.2090105,21.4518688 72.7777777,22.5161565 73.2052254,23.6534835 C73.6361625,24.7160321 73.9920782,25.8516201 74.2764618,27.0619865 C74.5608454,28.1958354 74.7039096,29.4009847 74.773697,30.611351 C74.845229,31.8165003 74.845229,33.0216496 74.773697,34.1624547 C73.9920782,40.6925203 70.2130912,45.3774729 64.7260578,48.7859759 L63.6548214,49.495501 C67.9327882,52.5475024 73.3517789,52.4049018 78.9801318,43.1741192 C82.0385641,45.1740061 82.8917149,51.4919099 80.7544761,55.396037 Z M82.6788633,36.3675474 C82.3229477,36.2249468 82.1100961,35.9414845 82.0385641,35.586722 C81.8920105,35.2319594 81.8204785,34.8789359 81.9635426,34.5224343 C82.4642671,31.04437 82.2514156,27.6376061 81.2517113,24.2291031 C81.1103918,23.5856612 80.8975403,23.0204758 80.682944,22.3805119 C80.4700925,21.8135875 80.257241,21.1753627 80.0426448,20.6084382 C79.7547718,19.9649963 79.4703882,19.3980718 79.1860046,18.8311474 C78.901621,18.2642229 78.6172374,17.6972984 78.2613217,17.1303739 C77.9769381,16.5582324 77.617533,15.9913079 77.2616173,15.4956837 C76.9057017,14.9287592 76.4799986,14.4331351 76.1240829,13.9357719 C75.6983799,13.3636303 75.3372301,12.8680062 74.839995,12.4436823 C74.4108025,11.9463191 73.9833548,11.450695 73.555907,11.0246321 C73.0551825,10.5290079 72.6277348,10.099467 72.1304996,9.67340413 C71.6332645,9.24734126 71.1342847,8.82301742 70.6335602,8.46825486 C70.1345803,8.04219199 69.5658131,7.68916847 69.068578,7.33440591 C68.4963214,6.97964335 67.9275542,6.62140273 67.3570423,6.3379405 C66.8598072,5.98317794 66.2875506,5.6997157 65.6472513,5.41625346 C65.0784841,5.13279123 64.5097169,4.84758996 63.9357156,4.56412772 C63.297161,4.3519658 62.7283938,4.13980388 62.0811158,3.92764196 C61.4425612,3.713741 60.8720493,3.50157908 60.23175,3.35897845 C59.5862166,3.14159943 58.947662,3.00073783 58.3056181,2.85813719 C57.6618294,2.78683687 57.0913175,2.64423624 56.4510182,2.57467495 C55.7391869,2.50337464 55.0953982,2.43207432 54.4533542,2.360774 C53.8147996,2.360774 53.1692663,2.28947368 52.528967,2.28947368 C51.8886677,2.28947368 51.2483684,2.28947368 50.6028351,2.360774 C49.9625358,2.360774 49.3222365,2.43207432 48.6767032,2.50337464 C48.0364039,2.64597527 47.3961046,2.71727559 46.7505713,2.85813719 C46.110272,2.92943751 45.4699727,3.07029911 44.8296734,3.28246103 C44.1841401,3.42853973 43.6171176,3.64244069 42.9750736,3.85460261 C42.3295402,3.99720324 41.760773,4.27892645 41.1204737,4.4928274 C40.5517065,4.70672835 39.9777053,4.99019059 39.337406,5.27365283 C38.7686388,5.55711507 38.1998716,5.84057731 37.627615,6.19533986 C37.0588478,6.4788021 36.5598679,6.83878175 35.9911007,7.19180527 C35.4188441,7.54656783 34.9198643,7.90133039 34.4226292,8.32565423 C33.853862,8.68041678 33.3531375,9.10647966 32.8541576,9.5308035 C32.4284546,9.95512734 31.9294747,10.3864073 31.4322396,10.8107311 C30.7884509,11.4489559 30.2912158,12.0158804 29.1467026,11.4489559 C28.5779354,11.235055 28.0807003,11.0228931 27.5101884,10.8107311 C26.9361871,10.5968302 26.3674199,10.4559686 25.7986527,10.313368 C25.2298855,10.1707673 24.6576289,10.0246886 24.0888617,9.88382702 C23.5200945,9.81426573 22.9513273,9.74296542 22.377326,9.67340413 C21.8085588,9.67340413 21.2397916,9.60210381 20.5977476,9.60210381 C20.025491,9.60210381 19.4567238,9.60210381 18.8879566,9.67340413 C18.2476573,9.74470445 17.673656,9.81600477 17.1048888,9.88556605 C16.5361216,10.0281667 15.963865,10.099467 15.3950978,10.2455457 C14.8263306,10.4577076 14.2575634,10.6003083 13.7550942,10.8124702 C13.1828376,10.9533318 12.6140704,11.1654937 12.1168353,11.450695 C11.542834,11.6628569 11.0455988,11.9463191 10.5483637,12.2297814 C10.0493839,12.5132436 9.55214874,12.7967058 9.04967955,13.1514684 C8.55244441,13.5114481 8.05520927,13.7949103 7.62776152,14.2192341 C7.20031377,14.5739967 6.76937664,14.9287592 6.34018421,15.3548221 C5.91448114,15.780885 5.48703339,16.2052088 5.13286239,16.6312717 C4.70018059,17.0608126 4.34600959,17.4868755 3.99009391,17.9824997 C3.63417823,18.4781238 3.34979463,18.9041867 2.99562363,19.3998109 C2.70600597,19.895435 2.42162237,20.4675766 2.20877083,20.9632008 C1.92438723,21.4588249 1.70979101,22.0257494 1.49693947,22.5231126 C1.28408794,23.0900371 1.07123641,23.6621786 0.856640189,24.2291031 C0.715320728,24.7960276 0.568767213,25.3629521 0.425703067,25.9298765 C0.354170995,26.496801 0.212851534,27.0706816 0.141319461,27.6358671 C0.0715320728,28.2027915 0.0715320728,28.769716 0,29.3383795 C0,29.9766043 0,30.5470069 0.0715320728,31.1156704 C0.0715320728,31.6825948 0.141319461,32.2495193 0.212851534,32.8877441 C0.284383606,33.4546686 0.425703067,34.0268102 0.49723514,34.5937346 C0.643788655,35.1606591 0.786852801,35.7275836 0.999704334,36.2945081 C1.1410238,36.7918713 1.35562001,37.3622738 1.56847155,37.9291983 C1.78132308,38.4265615 2.06570669,38.9917469 2.35009029,39.4891101 C2.56294183,39.9864733 2.85255949,40.5568758 3.20847517,41.054239 C3.49285877,41.4785629 3.84702977,41.975926 4.20294545,42.4715502 C4.55886113,42.8976131 4.91477681,43.3932372 5.34571393,43.8193001 C5.48703339,43.9636398 5.63009753,44.1079794 5.70162961,44.3201414 C5.84294907,44.5323033 5.84294907,44.7444652 5.91448114,44.9583662 C5.91448114,45.1705281 5.91448114,45.38269 5.84294907,45.5948519 C5.84294907,45.8783142 5.70162961,46.0209148 5.63009753,46.2330767 C4.27447752,49.0746552 3.63243355,51.9875341 3.63243355,55.1090967 C3.63243355,55.5351596 3.63243355,55.9577444 3.70396562,56.3838073 C3.70396562,56.8811705 3.70396562,57.3054943 3.7754977,57.7350353 C3.7754977,58.1610981 3.84528508,58.585422 3.91681716,59.0810461 C3.98834923,59.507109 4.0598813,59.9314328 4.20120076,60.3574957 C4.27273284,60.7818196 4.34426491,61.2113605 4.48558437,61.6374234 C4.62864851,62.0634862 4.6984359,62.4878101 4.84150005,62.9121339 C4.98281951,63.3381968 5.2009051,63.7625206 5.34396924,64.1938006 C5.4852887,64.6181245 5.69988492,64.972887 5.84120438,65.3972109 C6.05405592,65.8232737 6.26865213,66.1762972 6.48150367,66.6023601 C6.6943552,66.9571227 6.90720674,67.3118852 7.12005827,67.7414262 C7.40967593,68.0961887 7.62252746,68.4492122 7.90691107,68.8039748 C8.12150729,69.2300377 8.40589089,69.5830612 8.6902745,69.8665234 C8.97465811,70.221286 9.25729703,70.5743095 9.54691469,70.9290721 C9.8312983,71.2873127 10.1156819,71.5707749 10.4715976,71.8559762 C10.7559812,72.2089997 11.1118969,72.492462 11.3962805,72.7776632 C11.7556855,73.1306868 12.1116012,73.414149 12.4657722,73.6263109 C12.8216879,73.9097732 13.1776036,74.1949744 13.5335192,74.4819147 C13.8929243,74.6940766 14.24884,74.9775389 14.6047556,75.1914398 C15.0304587,75.4036018 15.3863744,75.687064 15.7422901,75.8992259 C16.1732272,76.1113878 16.5273982,76.2539885 16.9548459,76.4661504 C17.380549,76.6783123 17.7364647,76.8209129 18.1639124,77.0330749 C18.5948496,77.1739365 19.0205526,77.3165371 19.4480004,77.4591377 C19.8737034,77.5999993 20.3011512,77.746078 20.7320883,77.8869396 C21.1577914,77.95824 21.5852391,78.1008406 22.0109422,78.1721409 C22.43839,78.3130025 22.8693271,78.3843028 23.2950301,78.4556032 C23.7224779,78.5251644 24.219713,78.5964648 24.6471608,78.5964648 C25.0780979,78.6677651 25.503801,78.6677651 26.0010361,78.6677651 C26.4284839,78.7373264 26.8559316,78.7373264 27.2868687,78.7373264 C27.7841039,78.7373264 28.2098069,78.6677651 28.6372547,78.6677651 C29.0629578,78.5964648 29.4938949,78.5964648 29.9928747,78.5251644 C30.4185778,78.4556032 30.8460255,78.3843028 31.2717286,78.3130025 C31.7026657,78.2417022 32.1301135,78.1721409 32.6273486,78.0295403 C32.7686681,77.95824 32.9832643,77.8869396 33.1961158,77.8869396 C33.4804994,77.8869396 33.698585,77.8869396 33.9114366,77.95824 C34.1242881,78.0295403 34.2673522,78.1008406 34.4802038,78.2417022 C34.6215232,78.3843028 34.8361194,78.5251644 34.9059068,78.7373264 C40.5394937,85.6256327 47.8793823,88.3941718 56.5748908,86.3334187 C65.2703994,84.2726657 70.5445812,78.3843028 72.3974364,69.5778441 C72.3974364,69.3656822 72.3974364,69.1517812 72.5387559,69.0109196 C72.6102879,68.7987577 72.68182,68.6561571 72.8231395,68.5135564 C72.9662036,68.3013945 73.1790551,68.2318332 73.3971407,68.1605329 C73.5384602,68.0909716 73.7530564,68.0179323 73.9659079,68.0179323 C81.3773286,66.6667043 86.5119356,62.4078146 88.5026209,55.1682238 C88.7922385,54.3160981 89.0050901,53.4622333 89.1481542,52.6101076 C89.2894737,51.7597208 89.2894737,50.9075951 89.2894737,49.98243 C89.2894737,49.1303043 89.2894737,48.2799175 89.1481542,47.4277918 C89.0050901,46.5026267 88.7922385,45.65224 88.5026209,44.8714146 C88.2897693,44.0210278 87.9338537,43.2367243 87.5796827,42.4558989 C87.1522349,41.6768125 86.7265319,40.8959871 86.2240627,40.1812449 C85.7268275,39.4734588 85.1563156,38.7639337 84.5875484,38.1257089 C84.030994,37.5066135 83.3209073,36.9344719 82.6788633,36.3675474 Z" id="Shape"></path>
        </g>
    </g>
</svg>